<?xml version="1.0" encoding="UTF-8" standalone="no"?>
<!-- Created with Inkscape (http://www.inkscape.org/) -->

<svg
   version="1.1"
   id="svg1"
   width="2496"
   height="1943.6801"
   viewBox="0 0 2496 1943.6801"
   sodipodi:docname="bikemesa.org.svg"
   inkscape:version="1.3 (0e150ed, 2023-07-21)"
   xmlns:inkscape="http://www.inkscape.org/namespaces/inkscape"
   xmlns:sodipodi="http://sodipodi.sourceforge.net/DTD/sodipodi-0.dtd"
   xmlns="http://www.w3.org/2000/svg"
   xmlns:svg="http://www.w3.org/2000/svg">
  <defs
     id="defs1" />
  <sodipodi:namedview
     id="namedview1"
     pagecolor="#ffffff"
     bordercolor="#ffffff"
     borderopacity="0.25"
     inkscape:showpageshadow="2"
     inkscape:pageopacity="0.0"
     inkscape:pagecheckerboard="0"
     inkscape:deskcolor="#d1d1d1"
     inkscape:zoom="0.34655449"
     inkscape:cx="887.30636"
     inkscape:cy="1058.9965"
     inkscape:window-width="1752"
     inkscape:window-height="991"
     inkscape:window-x="50"
     inkscape:window-y="478"
     inkscape:window-maximized="0"
     inkscape:current-layer="g1" />
  <g
     inkscape:groupmode="layer"
     inkscape:label="Image"
     id="g1">
    <path
       style="fill:#ffffff"
       d="m 2369.611,1930.4663 c -31.0573,-2.2098 -50.6581,-5.7567 -55.4266,-10.03 -2.552,-2.287 -3.0997,-5.0347 -3.1181,-15.6418 -0.012,-6.6244 0.1825,-8.7987 0.7847,-8.7945 0.44,0 4.287,0.4168 8.5489,0.9194 26.4785,3.1225 65.6847,3.8134 79.4009,1.3991 19.363,-3.4082 28.3913,-10.3316 31.2867,-23.9919 0.9631,-4.5439 1.35,-32.4172 0.4435,-31.953 -23.6689,12.1214 -35.3973,15.2575 -57.1323,15.2772 -27.0025,0.024 -44.0917,-5.6726 -57.6315,-19.2125 -10.9037,-10.9037 -16.9224,-24.7026 -20.1728,-46.2496 -1.3666,-9.0594 -1.9114,-34.7636 -0.9564,-45.1192 2.8735,-31.1556 12.8116,-50.5301 32.5086,-63.3763 11.5831,-7.5543 25.247,-11.7671 46.5844,-14.3624 9.4259,-1.1466 52.752,-1.158 66.24,-0.018 27.6932,2.3416 40.7673,4.2416 45.9503,6.6779 4.4575,2.0953 5.2184,4.421 5.2356,16.0033 l 0.014,9.44 h -8.7152 -8.7152 l 0.3912,4.64 c 1.1831,14.0324 1.8496,50.5244 1.92,105.1201 l 0.079,61.44 -1.4755,6.72 c -1.5594,7.1015 -4.383,14.3589 -7.913,20.3382 -3.1985,5.4178 -12.7295,14.6219 -18.8586,18.2119 -18.1209,10.6137 -45.5538,14.9608 -79.2729,12.5617 z m 33.2648,-103.2871 c 6.4179,-1.1192 15.4425,-4.337 23.5352,-8.3918 l 5.6,-2.8058 v -58.487 -58.4869 l -5.28,-0.4691 c -2.904,-0.258 -12.48,-0.4665 -21.28,-0.4634 -27.2949,0.01 -39.2482,2.945 -49.3438,12.1169 -7.5323,6.8432 -12.2002,17.5516 -14.4557,33.1623 -1.2793,8.8545 -1.0818,35.3205 0.3313,44.389 2.1305,13.6727 6.2378,23.6311 12.1495,29.4572 5.674,5.5918 10.2032,7.9961 18.2676,9.6971 7.1733,1.5131 22.5966,1.6555 30.4759,0.2815 z m -411.1848,40.6107 c -33.3566,-1.6009 -57.1077,-12.4144 -70.0747,-31.904 -7.7937,-11.7142 -12.0141,-23.8407 -14.8301,-42.6115 -1.4469,-9.6452 -1.6616,-41.4406 -0.3413,-50.56 6.7216,-46.4259 26.6077,-67.6632 70.2061,-74.9764 5.6966,-0.9556 10.5206,-1.1809 25.28,-1.1809 14.7594,0 19.5834,0.2253 25.28,1.1809 21.6873,3.6378 35.081,9.6589 46.4835,20.8964 12.8501,12.6643 19.6332,27.6894 23.4032,51.84 1.6522,10.5847 1.6522,42.5354 0,53.12 -3.7364,23.9358 -10.9253,39.9381 -23.3365,51.9468 -8.3631,8.0919 -15.6744,12.375 -28.2252,16.535 -8.5888,2.8468 -20.5108,5.0079 -30.165,5.4679 -3.696,0.1762 -8.448,0.4037 -10.56,0.5057 -2.112,0.102 -8.016,-0.015 -13.12,-0.2599 z m 20.16,-30.0652 c 23.6613,-2.7082 33.7936,-13.583 38.7324,-41.5703 1.9845,-11.2454 2.5082,-37.3353 1.0085,-50.24 -1.7218,-14.8156 -4.8169,-25.393 -9.4689,-32.3594 -7.3928,-11.0708 -16.2466,-15.6376 -33.4831,-17.2708 -8.0076,-0.7587 -18.8052,0.077 -25.8864,2.0024 -16.7759,4.5626 -26.191,17.4702 -29.9057,40.9989 -1.6485,10.4418 -1.6441,44.814 0.01,55.815 3.5712,23.7917 12.9993,36.8704 29.5907,41.0481 8.2565,2.079 19.6679,2.6906 29.4054,1.5761 z M 79.558365,1867.1664 c -10.86428,-0.797 -23.12281,-2.673 -35.436664,-5.423 -18.43934,-4.118 -25.127306,-6.7469 -27.307038,-10.7338 -1.059304,-1.9376 -1.133068,-9.4217 -1.289725,-130.8552 l -0.16616,-128.8 h 17.766161 c 10.618098,0 18.756096,0.2785 20.226596,0.6868 1.35323,0.3757 3.51323,1.6479 4.8,2.827 l 2.33956,2.1438 0.17342,42.2894 c 0.0954,23.2592 0.31713,42.2894 0.49279,42.2894 0.17565,0 2.83362,-1.26 5.90658,-2.8 18.28308,-9.1626 32.44819,-12.564 52.290425,-12.5562 41.73301,0.016 67.15679,19.0981 77.12197,57.8837 4.88962,19.0309 6.18855,44.2919 3.46966,67.4766 -5.46794,46.6265 -28.28855,69.3903 -75.13484,74.9477 -8.1031,0.9613 -35.487575,1.3366 -45.252735,0.6202 z m 38.852735,-30.3223 c 19.04771,-3.3762 28.23082,-12.673 33.23832,-33.6497 2.60992,-10.9331 3.39259,-19.0344 3.40069,-35.2 0.0153,-30.464 -4.48855,-48.0034 -15.29231,-59.5535 -3.99789,-4.2741 -7.80397,-6.5662 -14.9467,-9.0012 -5.67251,-1.9338 -6.78775,-2.091 -16.64,-2.345 -7.93752,-0.2046 -12.069915,-0.011 -16.640005,0.7811 -7.87104,1.3636 -17.86677,4.7298 -25.028,8.4284 l -5.692,2.9398 v 62.2668 c 0,52.5235 0.139,62.32 0.88829,62.6076 1.76396,0.6769 17.16297,3.0782 23.26745,3.6283 8.51002,0.7669 26.811885,0.2729 33.444265,-0.9026 z m 523.52,30.5604 c -13.46125,-0.9641 -27.30382,-3.5209 -36.36011,-6.7158 -28.67567,-10.1163 -43.09858,-29.8458 -48.58025,-66.4543 -1.40858,-9.4069 -1.59425,-41.8553 -0.29298,-51.2 6.69535,-48.0801 29.60215,-71.0942 75.76812,-76.123 8.93109,-0.9728 27.67828,-0.8335 36.98914,0.275 32.33887,3.8499 53.00521,18.0034 61.23287,41.9357 3.70497,10.7769 4.87803,19.3896 4.88039,35.8323 0.002,14.9346 -0.847,23.3455 -3.23064,32 l -1.14575,4.16 -66.16458,0.1631 -66.16458,0.163 0.41624,5.4151 c 0.56448,7.3438 2.72018,18.2003 4.61177,23.2258 2.20502,5.8582 6.86839,12.5703 10.79105,15.532 6.70545,5.0626 16.50436,8.5047 29.48931,10.3587 9.79076,1.3979 40.70346,1.0384 58.81398,-0.6839 15.49528,-1.4736 19.14048,-1.4074 22.25148,0.4045 2.75927,1.607 3.29674,3.6059 3.59626,13.3744 l 0.27817,9.0727 -4.07767,1.2595 c -10.44015,3.2246 -32.25501,6.6951 -48.8513,7.7716 -9.39472,0.6094 -27.29933,0.7316 -34.25092,0.2336 z m 52.7796,-117.1701 c 0.58531,-5.8871 -0.65277,-21.2178 -2.21344,-27.4081 -2.84836,-11.2979 -8.66097,-19.6088 -16.31938,-23.3333 -6.53846,-3.1799 -10.54925,-3.9335 -22.72678,-4.27 -9.74331,-0.2693 -12.07401,-0.1307 -17.92,1.0656 -17.51808,3.5846 -28.64788,13.911 -33.24812,30.8478 -1.49811,5.5157 -3.23188,18.1819 -3.23188,23.6108 v 3.8072 h 47.61505 47.61504 z m 536.0203,117.2178 c -31.1884,-2.7495 -49.7343,-9.4837 -63.0864,-22.9072 -15.1005,-15.1812 -22.1503,-36.7866 -23.0988,-70.7906 -0.8752,-31.379 3.7688,-54.9277 14.2923,-72.4719 3.4756,-5.7943 10.7283,-13.8677 16.3306,-18.1786 10.7665,-8.2847 26.9658,-13.9538 46.2823,-16.1969 7.4731,-0.8679 27.4454,-0.8621 35.3852,0.01 20.8947,2.2956 38.5813,9.6037 49.3822,20.4046 10.222,10.222 16.03,24.7586 18.0097,45.0751 1.3276,13.6249 -0.1903,35.318 -3.1519,45.0461 l -1.1177,3.6714 -66.0537,0.163 -66.0538,0.163 v 2.3149 c 0,4.1341 1.9178,15.7785 3.5626,21.631 5.1409,18.293 15.8805,26.5371 39.4085,30.2512 11.1274,1.7566 40.6676,1.5891 60.9629,-0.3458 24.8417,-2.3682 25.666,-1.9213 25.666,13.9163 v 9.3465 l -8.1381,2.049 c -8.3575,2.1044 -24.0546,4.7413 -35.3819,5.9438 -6.5805,0.6986 -38.0605,1.3579 -43.2,0.9049 z m 52.843,-116.5406 c 0.5107,-4.0874 -0.045,-16.2755 -1.0301,-22.5972 -1.8835,-12.0859 -7.1917,-22.1966 -14.0622,-26.7845 -7.5998,-5.075 -16.3071,-6.8126 -31.6707,-6.3202 -16.7074,0.5355 -26.0406,3.8511 -34.6358,12.3043 -7.7428,7.6149 -11.8409,17.9406 -13.6428,34.3752 -0.3748,3.4181 -0.6814,7.6661 -0.6814,9.44 v 3.2252 h 47.6339 47.634 z m 139.477,116.261 c -17.4155,-1.199 -36.7273,-3.6735 -44.8183,-5.7428 -8.6918,-2.223 -11.8183,-4.4435 -13.0295,-9.2539 -0.674,-2.6767 -1.032,-19.0083 -0.4298,-19.6105 0.1553,-0.1553 6.8513,0.3502 14.88,1.1235 30.8615,2.9721 60.4803,3.4548 75.0776,1.2236 19.2545,-2.9432 26.7024,-9.9202 26.8304,-25.134 0.1437,-17.0832 -6.5117,-21.2011 -49.9186,-30.8866 -30.8677,-6.8876 -37.6161,-9.026 -48.2049,-15.2752 -6.2702,-3.7006 -13.5211,-10.8224 -16.2706,-15.9809 -5.6669,-10.6323 -6.7858,-29.776 -2.5494,-43.6204 6.1547,-20.1133 24.4689,-32.0306 55.7483,-36.2761 23.6814,-3.2143 77.1441,1.2162 88.3619,7.3225 5.5346,3.0128 5.812,3.742 6.0465,15.8943 l 0.2035,10.5527 -2.1235,-0.3575 c -2.7231,-0.4584 -23.3763,-1.9936 -40.0295,-2.9756 -17.131,-1.0101 -37.4989,-0.4544 -45.3965,1.2385 -11.4977,2.4648 -17.995,7.0069 -20.4059,14.2655 -1.5085,4.5416 -1.0689,13.9145 0.8235,17.5584 4.087,7.8699 13.1008,11.9499 38.8215,17.5718 15.8514,3.4648 36.4894,8.6625 43.2633,10.8959 19.2743,6.355 30.3289,16.9027 34.6539,33.0651 1.7221,6.4354 1.9102,21.7678 0.352,28.6966 -2.5822,11.4825 -6.1699,18.171 -13.8859,25.887 -10.3394,10.3394 -22.283,15.4929 -43.1857,18.6341 -9.8168,1.4752 -32.0514,2.0627 -44.8143,1.184 z m 197.8839,-0.6099 c -25.3364,-2.4586 -41.9439,-12.0442 -50.9223,-29.3913 -8.8025,-17.0074 -9.5231,-42.174 -1.6835,-58.7968 5.3584,-11.3618 14.135,-19.1446 28.4819,-25.2571 15.5227,-6.6133 34.7302,-8.7498 78.9803,-8.7848 l 22.9802,-0.018 -0.4049,-10.08 c -0.5801,-14.4392 -2.5529,-20.7253 -8.2217,-26.1978 -5.3539,-5.1684 -14.7645,-8.3615 -28.9509,-9.8233 -10.3525,-1.0667 -37.9232,-0.4411 -54.783,1.2431 -16.5238,1.6506 -21.9951,1.6982 -24.96,0.2171 -3.7605,-1.8786 -4.4779,-4.2292 -4.479,-14.6759 -9e-4,-8.0862 0.1212,-9.1148 1.119,-9.4242 0.616,-0.1911 4.432,-1.0577 8.48,-1.9258 41.8323,-8.9711 85.1738,-9.6054 112,-1.639 21.8054,6.4754 34.4355,17.415 40.2566,34.8686 3.9771,11.9245 3.9034,10.2865 3.9034,86.8011 v 69.6762 l -16.48,-0.01 c -11.9853,-0.01 -16.9156,-0.2298 -18.0772,-0.8175 -2.5667,-1.2985 -4.3261,-5.3476 -5.5732,-12.8257 l -1.1496,-6.8939 -3.52,2.6374 c -9.0829,6.8053 -24.714,14.8352 -34.24,17.5895 -3.168,0.9159 -8.496,2.0848 -11.84,2.5975 -7.638,1.1711 -23.5123,1.6488 -30.9161,0.9304 z m 37.7117,-29.7942 c 11.7604,-1.7462 22.1863,-6.1096 34.1644,-14.2982 l 5.44,-3.7189 v -23.6185 -23.6185 l -29.44,0.038 c -25.3141,0.032 -30.2358,0.1943 -35.1183,1.1553 -17.1842,3.3821 -26.2861,10.2683 -28.4532,21.5269 -1.274,6.6189 -1.4513,9.9225 -0.8252,15.3752 1.84,16.0262 10.4816,24.6119 27.5967,27.4181 5.7133,0.9367 19.484,0.8027 26.6356,-0.2592 z m 156.0379,28.2083 c -11.8311,-2.1487 -16.5437,-6.9409 -18.2754,-18.5839 -0.8251,-5.5472 -0.063,-12.1185 1.9258,-16.6155 3.7262,-8.4237 14.0322,-12.3425 30.7683,-11.6994 10.132,0.3893 15.342,1.806 20.2134,5.4964 6.1305,4.6442 8.8094,14.8453 6.6148,25.1885 -2.0471,9.6478 -7.2642,14.25 -18.4075,16.2377 -6.0426,1.0778 -16.8358,1.0666 -22.8394,-0.024 z m -1558.72943,-3.0816 c -1.19093,-0.8025 -2.52527,-2.1705 -2.96521,-3.04 -0.62883,-1.2427 -0.80191,-21.5287 -0.80933,-94.8608 l -0.009,-93.28 h 19.22056 c 20.88373,0 22.20383,0.1876 24.83198,3.5288 l 1.38746,1.7639 v 93.6737 93.6737 h -19.74535 c -19.49389,0 -19.77294,-0.019 -21.91068,-1.4593 z m 101.76,0 c -1.19093,-0.8025 -2.52527,-2.1705 -2.96521,-3.04 -0.63212,-1.2492 -0.80187,-29.4676 -0.80933,-134.5408 l -0.009,-132.96 19.04,0.014 c 17.31957,0.013 19.28194,0.1239 21.71756,1.2297 5.04796,2.2919 4.68244,-4.0533 4.68244,81.2845 0,41.9054 0.14296,76.1917 0.31769,76.1917 1.01882,0 23.86356,-17.2052 33.27736,-25.0624 11.37358,-9.4929 30.06702,-28.109 45.68649,-45.4976 l 7.90471,-8.8 h 18.85611 18.8561 l 1.87077,1.8708 c 2.27802,2.278 2.5172,5.8731 0.63605,9.5605 -4.30726,8.4429 -24.83327,29.266 -49.00528,49.7146 -10.2409,8.6634 -26.85882,21.378 -33.4344,25.581 -2.19692,1.4042 -3.99692,2.7274 -4,2.9404 -0.003,0.213 1.7944,1.6329 3.9944,3.1553 18.44603,12.7646 42.39563,33.5576 58.25625,50.578 7.87155,8.4471 25.80601,30.6566 33.5599,41.5595 l 5.23426,7.36 -23.37497,0.1679 c -26.8576,0.1929 -27.14358,0.146 -30.61295,-5.0216 -10.18797,-15.175 -29.50257,-36.8405 -46.10249,-51.7139 -14.55116,-13.0372 -39.72541,-33.3524 -41.33035,-33.3524 -0.35453,0 -0.59008,18.0112 -0.59008,45.1201 v 45.12 h -19.74535 c -19.49389,0 -19.77294,-0.019 -21.91068,-1.4593 z m 431.36,0 c -1.19093,-0.8025 -2.52527,-2.1705 -2.96521,-3.04 -0.62883,-1.2427 -0.80191,-21.5287 -0.80933,-94.8608 l -0.009,-93.28 h 15.86439 c 15.19029,0 15.98414,0.061 18.68253,1.44 4.08352,2.0866 4.98352,3.7387 6.18872,11.36 0.58446,3.696 1.2632,6.9508 1.5083,7.2328 0.2451,0.2821 2.14449,-0.9035 4.22085,-2.6345 5.37396,-4.4801 13.08909,-9.3929 19.77521,-12.5924 24.25925,-11.6086 60.2934,-12.1671 82.67025,-1.2814 7.02108,3.4155 14.18919,9.7259 17.92729,15.7822 1.2674,2.0533 2.4353,3.7333 2.5952,3.7333 0.16,0 1.631,-1.1808 3.2691,-2.624 7.396,-6.5167 24.3188,-16.1129 34.3572,-19.4827 10.91083,-3.6627 29.03153,-5.8874 41.58093,-5.105 19.7132,1.2289 33.3951,6.2695 43.9574,16.1944 7.8387,7.3657 12.2145,15.3929 15.4255,28.2973 1.332,5.3531 1.357,6.6144 1.566,78.9056 l 0.2123,73.4656 -20.4891,-0.1856 -20.4891,-0.1855 -2.0915,-2.092 -2.0915,-2.092 -0.3375,-67.028 c -0.3288,-65.3026 -0.3713,-67.1372 -1.6515,-71.2667 -2.5935,-8.3658 -6.8817,-13.5946 -14.2734,-17.404 -6.8199,-3.5147 -9.3299,-3.9604 -22.1376,-3.9305 -9.8314,0.023 -12.31733,0.2371 -16.95993,1.4612 -6.7514,1.7801 -17.4971,7.0815 -25.92,12.7876 l -6.4,4.3357 0.207,2.5343 c 0.1139,1.3939 0.344,34.1423 0.5113,72.7743 l 0.3041,70.2401 h -19.5767 c -18.1371,0 -19.75638,-0.092 -22.01962,-1.2463 -1.40435,-0.7165 -2.74784,-2.0088 -3.16022,-3.04 -0.50861,-1.2718 -0.77584,-20.7888 -0.91838,-67.0738 -0.1998,-64.8752 -0.20972,-65.311 -1.6003,-70.2876 -2.64236,-9.4566 -6.97297,-14.9465 -14.92476,-18.9201 -6.44991,-3.223 -12.00477,-4.1088 -23.51175,-3.7492 -11.9346,0.373 -19.2317,2.0202 -27.6714,6.2464 -5.74608,2.8773 -15.33085,8.8545 -17.71931,11.05 l -1.44,1.3237 v 72.8484 72.8485 h -19.74535 c -19.49389,0 -19.77294,-0.019 -21.91068,-1.4593 z m 1363.89593,0.3383 c -1.2815,-0.6402 -2.7188,-2.0775 -3.359,-3.359 -1.0499,-2.1017 -1.1191,-7.982 -1.12,-95.2388 v -92.9987 l 16.9146,0.1987 c 15.8717,0.1865 17.0259,0.2797 18.72,1.512 2.9254,2.128 4.5705,6.264 5.3326,13.4067 0.3756,3.52 0.8291,7.3386 1.0079,8.4857 l 0.325,2.0857 4.61,-3.8974 c 10.754,-9.092 25.3703,-17.1961 36.1938,-20.068 12.0704,-3.2028 26.7497,-3.7741 31.8512,-1.2395 4.8315,2.4004 5.0198,3.0708 5.2462,18.6787 l 0.2014,13.8748 -12.6814,0.099 c -24.7086,0.1937 -40.4038,4.8714 -56.0413,16.7022 l -5.6,4.2368 v 69.3208 69.3209 h -19.68 c -17.4542,-9e-4 -19.9333,-0.1276 -21.92,-1.12 z m -1890.54881,-223.2 c -6.06961,-1.3743 -9.6016,-3.4041 -11.92911,-6.8555 -5.38715,-7.9883 -3.95268,-23.36 2.64988,-28.396 5.40028,-4.119 17.24792,-6.1871 28.30047,-4.9401 11.14588,1.2575 17.13238,4.6122 20.0538,11.2379 1.20633,2.7359 1.47916,4.4761 1.47916,9.4346 0,10.1506 -3.22538,15.2917 -11.52923,18.3771 -3.89606,1.4476 -5.56074,1.6588 -14.63606,1.8574 -7.39788,0.1619 -11.39153,-0.037 -14.38891,-0.7154 z M 171.8511,1489.5474 c -71.31473,-0.447 -108.351965,-1.2255 -121.240187,-2.5484 -10.588785,-1.0868 -12.455644,-2.04 -14.504908,-7.4059 -3.712246,-9.7204 6.181997,-21.0985 40.981,-47.1268 31.186255,-23.3262 65.055955,-53.246 115.380195,-101.9247 36.37107,-35.1818 62.7222,-58.3695 67.98479,-59.8234 3.1453,-0.8689 20.36829,-1.8091 48.03911,-2.6224 35.87128,-1.0543 248.30386,-1.5039 300.48,-0.636 47.29854,0.7868 73.0624,1.6201 81.27192,2.6288 11.20304,1.3764 25.38622,11.2153 39.18943,27.1858 24.55805,28.414 97.41013,125.3108 117.67432,156.5126 5.09549,7.8457 6.66433,11.6032 6.66433,15.9614 0,4.1547 -1.3054,7.3606 -5.93111,14.566 l -3.8005,5.92 -298.97419,-0.1108 c -164.43581,-0.061 -332.3822,-0.3202 -373.2142,-0.5762 z m 865.8939,-5.5804 c -6.7023,-3.4169 -14.4226,-7.7718 -17.1562,-9.6775 -22.60423,-15.7586 -57.91453,-53.5458 -102.9157,-110.1351 -23.32913,-29.3365 -41.65188,-53.6189 -74.12893,-98.24 -35.21514,-48.383 -46.8848,-61.995 -63.17875,-73.6943 -6.0965,-4.3774 -18.59648,-10.8808 -24.95323,-12.9826 -12.86522,-4.2537 -20.39341,-4.5229 -144.52109,-5.167 -116.18551,-0.603 -139.78322,-1.1102 -143.65648,-3.0881 -4.66387,-2.3815 -5.42162,-7.257 -2.1524,-13.8488 3.2037,-6.4597 7.80163,-11.8892 22.55012,-26.6286 13.72943,-13.721 15.57042,-15.3309 20.29944,-17.7512 11.77021,-6.0239 27.84643,-8.4599 69.03932,-10.4616 21.24006,-1.0321 418.00527,-1.4716 524.7999,-0.5814 119.6101,0.9971 145.6477,1.7909 160.5351,4.8938 20.2521,4.221 31.6707,10.1554 45.1462,23.4632 11.9557,11.8068 20.8019,23.8736 53.609,73.1266 44.0294,66.1008 64.6802,94.321 90.7204,123.9728 22.1852,25.2621 41.6593,43.8058 82.6293,78.6815 51.3885,43.7445 64.9813,58.3244 64.949,69.6657 -0.01,2.4558 -0.4423,4.2759 -1.4395,6.0199 -2.2046,3.8553 -3.9155,4.7562 -10.3895,5.4704 -20.7646,2.291 -122.992,3.1969 -359.36,3.1843 l -178.24,-0.01 z m 857.306,4.9399 c -44.2257,-0.6892 -62.4125,-1.849 -74.6892,-4.7631 -24.9992,-5.9341 -67.4404,-28.5929 -106.092,-56.6413 -45.4035,-32.9481 -125.6805,-103.3752 -151.7369,-133.1189 -37.1694,-42.4295 -75.3682,-94.8008 -104.2195,-142.8871 -12.0734,-20.1226 -18.7977,-32.3921 -30.5767,-55.7917 -19.252,-38.2453 -28.2227,-51.8571 -40.8161,-61.9331 -9.6964,-7.7581 -19.5832,-12.312 -30.1235,-13.8752 -18.6161,-2.7608 -61.6047,-3.2648 -335.9861,-3.9394 -135.6959,-0.3336 -252.7679,-0.879 -260.1599,-1.212 -37.24982,-1.6779 -47.68,-4.119 -47.68,-11.1589 0,-2.6007 2.02326,-9.63063 3.74065,-12.99703 3.48831,-6.8376 13.99144,-18.8695 23.92221,-27.4041 14.84937,-12.7618 25.61717,-18.6496 38.67908,-21.1498 9.06316,-1.7348 21.74654,-2.2693 67.41806,-2.8412 25.52,-0.3196 50,-0.8876 54.4,-1.2621 20.30796,-1.7287 27.71705,-4.5065 25.60709,-9.6004 -1.66136,-4.0108 -8.11289,-7.9001 -17.05563,-10.2818 -17.83578,-4.7503 -34.21949,-12.4618 -53.99146,-25.4128 -26.67248,-17.471 -47.08945,-36.2165 -61.26846,-56.2525 -44.51944,-62.9093 -54.6359,-145.9046 -26.39568,-216.54999 17.27707,-43.2201 47.93242,-79.28507 89.38773,-105.1616 29.25384,-18.26033 62.72565,-29.61683 97.47638,-33.07232 9.4386,-0.93854 32.1056,-0.9368 41.6,0.003 28.23393,2.79529 54.13793,10.3227 79.35993,23.06117 43.7258,22.08386 77.3728,56.25525 100.1513,101.71211 11.3569,22.66403 17.3775,41.28923 20.9579,64.83503 1.1996,7.889 1.3886,11.918 1.4175,30.2224 0.034,21.5468 -0.2221,25.1157 -2.9158,40.64 -5.9944,34.5471 -21.0129,69.1682 -41.9703,96.7511 -16.035,21.1044 -34.0278,37.5318 -59.0806,53.9407 -19.9293,13.0531 -35.0413,20.1235 -55.36,25.9011 -10.8976,3.0988 -16.2925,10.4131 -11.3363,15.3693 1.5708,1.5708 2.4302,1.836 7.2,2.2216 12.5961,1.0183 54.7494,1.6444 159.0967,2.3628 146.8315,1.0109 356.031,-0.2831 380.6867,-2.3548 4.4185,-0.3713 5.3227,-0.6631 6.88,-2.2204 3.9034,-3.9034 1.5001,-9.672 -5.5095,-13.2246 -1.7917,-0.9081 -6.283,-2.4449 -9.9808,-3.4152 -29.9359,-7.8551 -72.9906,-35.8589 -97.9943,-63.7379 -31.6989,-35.3442 -49.3356,-74.244 -55.3831,-122.1537 -1.5815,-12.5294 -1.5782,-41.1058 0.01,-54.08 2.5438,-20.8291 7.0143,-38.7353 14.3008,-57.27997 17.249,-43.90015 47.0071,-79.99208 86.4238,-104.81856 8.8943,-5.60207 37.5784,-19.92408 46.2497,-23.09255 20.9424,-7.6523 40.0767,-9.84417 80,-9.16415 35.7678,0.60924 52.1338,2.97543 72.2515,10.44608 11.7778,4.37364 31.4791,14.80711 46.0743,24.40016 21.0825,13.85697 42.1897,34.53164 57.3984,56.22232 42.9861,61.30677 53.4353,141.32527 27.3611,209.52667 -14.0592,36.774 -39.3915,70.5407 -73.0288,97.3436 -19.5657,15.5904 -38.44,26.027 -61.2565,33.8718 -27.007,9.2856 -33.1602,14.0632 -23.0057,17.8625 9.326,3.4893 25.5099,4.807 87.0057,7.0841 39.3581,1.4574 56.9656,3.5341 64.8469,7.6482 11.2691,5.8826 23.908,23.0456 59.1698,80.34973 12.4977,20.3102 27.9384,43.7025 40.1325,60.8 46.6809,65.4517 101.6385,128.3941 143.3882,164.2213 38.6331,33.1527 89.0704,68.3335 142.3826,99.3142 50.1968,29.1702 103.1471,55.4452 171.2,84.9528 45.8425,19.8772 52.5392,23.8613 57.8863,34.4388 2.1644,4.2816 1.0728,9.197 -2.7582,12.4206 -3.6446,3.0667 -14.0547,4.0494 -52.5681,4.9623 -30.5609,0.7244 -454.2601,0.6927 -501.12,-0.037 z M 1644.5964,884.16807 c 18.455,-0.8009 25.9386,-1.6801 35.899,-4.2174 20.6929,-5.2714 41.8901,-16.1101 62.1243,-31.7659 10.1141,-7.8256 29.325,-27.2774 36.6359,-37.0953 20.6131,-27.6818 31.7394,-55.1971 35.5421,-87.895 1.2729,-10.9456 0.9167,-33.4484 -0.6939,-43.84 -4.078,-26.3098 -13.829,-53.5442 -25.2569,-70.54173 -7.1111,-10.57689 -12.3315,-16.71125 -24.9575,-29.32693 -19.1049,-19.08927 -37.5143,-32.84564 -56.0641,-41.89376 -15.4587,-7.54035 -21.6942,-9.70931 -32.3559,-11.25484 -7.1478,-1.03615 -59.623,-1.50216 -72.8067,-0.64656 -18.0327,1.17028 -24.4922,2.99284 -43.2917,12.21495 -21.357,10.47665 -37.3948,22.34389 -56.3588,41.70272 -28.8608,29.46181 -42.8303,57.33865 -48.3805,96.54615 -1.3687,9.6687 -1.1633,48.0467 0.31,57.92 5.8335,39.0933 20.4201,67.1142 50.6454,97.2903 25.3903,25.3489 62.1966,46.7765 87.9768,51.2175 10.7514,1.8521 30.6477,2.4704 51.0325,1.5858 z m -640.4254,-1.2955 c 16.2996,-1.356 25.5741,-3.6353 39.68,-9.7517 8.9758,-3.8919 13.5245,-6.3619 22.9037,-12.4367 23.4544,-15.1914 49.4438,-39.3038 61.502,-57.0603 8.9149,-13.1277 17.6878,-33.5243 22.482,-52.2694 4.5456,-17.7731 5.429,-25.4894 5.422,-47.36 -0.01,-20.102 -0.4741,-25.2649 -3.6234,-40 -5.4169,-25.3457 -17.2962,-51.67432 -30.6088,-67.83999 -16.7043,-20.28434 -40.3924,-40.61975 -62.0775,-53.2914 -7.1058,-4.15226 -20.6661,-10.46396 -27.52,-12.80928 -12.4532,-4.26135 -25.4005,-5.20466 -65.27993,-4.75619 -31.26726,0.35162 -35.9566,0.77904 -46.85785,4.27103 -7.39769,2.36969 -27.83808,12.45065 -36.71849,18.10912 -19.48827,12.41765 -40.7421,31.30379 -54.19397,48.15672 -30.39819,38.08379 -42.19476,97.85019 -30.12776,152.63999 3.81812,17.3361 12.66241,38.8165 21.2127,51.52 13.89249,20.6407 39.20001,45.5889 59.9654,59.1141 22.15483,14.4302 44.12295,22.0695 70.08,24.37 8.06687,0.7149 42.55517,0.3262 53.7599,-0.606 z m 291.2181,-127.4046 c -4.9959,-0.8899 -11.8751,-3.0118 -16.3381,-5.0395 -14.544,-6.6079 -16.5134,-17.019 -18.226,-96.354 -1.2019,-55.67395 -2.4316,-90.67085 -3.8905,-110.71999 -0.9657,-13.2725 -0.7842,-12.72774 -5.3187,-15.96248 -9.3494,-6.6695 -27.5074,-16.6785 -65.595,-36.15707 -32.7256,-16.73635 -50.6035,-26.26053 -68.0239,-36.23862 -37.2042,-21.30993 -56.5059,-37.18598 -64.5355,-53.08184 -9.1212,-18.05681 -7.9186,-59.43714 2.1234,-73.06293 16.1028,-21.84978 148.1704,-151.27568 189.9988,-186.1984 7.2873,-6.08424 10.4973,-7.9012 17.0505,-9.65113 22.9477,-6.12787 54.4172,-0.91844 69.9194,11.57442 5.1349,4.1381 7.9891,8.16016 15.0143,21.15755 11.5873,21.43801 29.1367,50.7225 48.4029,80.76954 16.7195,26.07531 24.5314,36.55769 33.3433,44.74168 7.0116,6.51195 10.2375,8.4263 15.497,9.19665 8.0617,1.18078 27.2374,1.96834 63.1941,2.59544 36.9656,0.64469 49.89,1.26201 61.5554,2.9401 16.3326,2.34949 24.5488,5.81956 31.5633,13.33062 5.7688,6.17708 9.1272,12.44345 9.1272,17.02995 0,5.10746 -1.9611,8.29671 -10.56,17.17344 l -7.68,7.92812 -43.2,-0.44238 c -75.4291,-0.77241 -120.4134,-1.57997 -128,-2.29786 -21.5822,-2.04225 -31.224,-6.78539 -41.567,-20.44812 -2.0055,-2.64918 -8.6076,-12.22078 -14.6714,-21.27023 -19.2142,-28.6749 -29.4329,-41.0604 -36.8816,-44.70201 -4.3574,-2.13032 -10.3179,-2.1321 -14.4,-0.004 -6.4492,3.3617 -15.3958,10.99469 -31.9027,27.21852 -29.304,28.80155 -55.797,59.80381 -55.771,65.26367 0.012,2.55959 3.2098,8.14974 6.8593,11.99127 7.6478,8.05034 18.0407,14.94336 40.9866,27.18407 28.4103,15.15576 45.0948,26.42093 57.9389,39.11974 7.453,7.3687 9.2746,10.29908 10.3963,16.72419 2.4774,14.19064 3.1609,62.09025 2.2612,158.45839 -0.9113,97.6206 -1.6311,115.0319 -5.0776,122.8232 -2.5332,5.7268 -9.9265,10.668 -19.8556,13.2702 -5.6681,1.4855 -18.3726,2.0956 -23.7373,1.1401 z m 95.8103,-595.78334 c -6.1587,-0.77722 -11.8395,-2.76234 -20.424,-7.13694 -21.4614,-10.93671 -33.9655,-26.41723 -38.9595,-48.23324 -0.9008,-3.93523 -1.4349,-9.110347 -1.686,-16.335627 -0.6014,-17.30355 1.1586,-27.74454 6.5242,-38.70437 3.5058,-7.16103 7.6534,-12.66762 15.5885,-20.69604 16.3838,-16.576549 29.6036,-21.8961594 54.3032,-21.8514694 26.937,0.0487 48.4145,9.4421504 61.8455,27.0487494 11.7543,15.40855 16.6121,34.89449 15.1121,60.61876 -0.6187,10.610687 -1.6414,15.092837 -4.8055,21.060997 -5.5735,10.51259 -19.0625,26.39132 -27.5869,32.47422 -7.8917,5.63138 -18.3148,9.50499 -29.66,11.02276 -6.9405,0.92851 -25.195,1.37033 -30.2516,0.7322 z"
       id="path1" />
  </g>
</svg>
